ISO-10303-21;
HEADER;
FILE_DESCRIPTION(('Open CASCADE Model'),'2;1');
FILE_NAME('Open CASCADE Shape Model','2026-06-14T09:57:27',('Author'),(
    'Open CASCADE'),'Open CASCADE STEP processor 7.5','Open CASCADE 7.5'
  ,'Unknown');
FILE_SCHEMA(('AUTOMOTIVE_DESIGN { 1 0 10303 214 1 1 1 1 }'));
ENDSEC;
DATA;
#1 = APPLICATION_PROTOCOL_DEFINITION('international standard',
  'automotive_design',2000,#2);
#2 = APPLICATION_CONTEXT(
  'core data for automotive mechanical design processes');
#3 = SHAPE_DEFINITION_REPRESENTATION(#4,#10);
#4 = PRODUCT_DEFINITION_SHAPE('','',#5);
#5 = PRODUCT_DEFINITION('design','',#6,#9);
#6 = PRODUCT_DEFINITION_FORMATION('','',#7);
#7 = PRODUCT('Open CASCADE STEP translator 7.5 4',
  'Open CASCADE STEP translator 7.5 4','',(#8));
#8 = PRODUCT_CONTEXT('',#2,'mechanical');
#9 = PRODUCT_DEFINITION_CONTEXT('part definition',#2,'design');
#10 = SHAPE_REPRESENTATION('',(#11,#15,#19,#23,#27,#31,#35,#39,#43),#47
  );
#11 = AXIS2_PLACEMENT_3D('',#12,#13,#14);
#12 = CARTESIAN_POINT('',(0.,0.,0.));
#13 = DIRECTION('',(0.,0.,1.));
#14 = DIRECTION('',(1.,0.,-0.));
#15 = AXIS2_PLACEMENT_3D('',#16,#17,#18);
#16 = CARTESIAN_POINT('',(0.,0.,0.));
#17 = DIRECTION('',(0.,0.,1.));
#18 = DIRECTION('',(1.,0.,-0.));
#19 = AXIS2_PLACEMENT_3D('',#20,#21,#22);
#20 = CARTESIAN_POINT('',(0.,0.,0.));
#21 = DIRECTION('',(0.,0.,1.));
#22 = DIRECTION('',(1.,0.,-0.));
#23 = AXIS2_PLACEMENT_3D('',#24,#25,#26);
#24 = CARTESIAN_POINT('',(0.,0.,0.));
#25 = DIRECTION('',(0.,0.,1.));
#26 = DIRECTION('',(1.,0.,-0.));
#27 = AXIS2_PLACEMENT_3D('',#28,#29,#30);
#28 = CARTESIAN_POINT('',(0.,0.,0.));
#29 = DIRECTION('',(0.,0.,1.));
#30 = DIRECTION('',(1.,0.,-0.));
#31 = AXIS2_PLACEMENT_3D('',#32,#33,#34);
#32 = CARTESIAN_POINT('',(0.,0.,0.));
#33 = DIRECTION('',(0.,0.,1.));
#34 = DIRECTION('',(1.,0.,-0.));
#35 = AXIS2_PLACEMENT_3D('',#36,#37,#38);
#36 = CARTESIAN_POINT('',(0.,0.,0.));
#37 = DIRECTION('',(0.,0.,1.));
#38 = DIRECTION('',(1.,0.,-0.));
#39 = AXIS2_PLACEMENT_3D('',#40,#41,#42);
#40 = CARTESIAN_POINT('',(0.,0.,0.));
#41 = DIRECTION('',(0.,0.,1.));
#42 = DIRECTION('',(1.,0.,-0.));
#43 = AXIS2_PLACEMENT_3D('',#44,#45,#46);
#44 = CARTESIAN_POINT('',(0.,0.,0.));
#45 = DIRECTION('',(0.,0.,1.));
#46 = DIRECTION('',(1.,0.,-0.));
#47 = ( GEOMETRIC_REPRESENTATION_CONTEXT(3) 
GLOBAL_UNCERTAINTY_ASSIGNED_CONTEXT((#51)) GLOBAL_UNIT_ASSIGNED_CONTEXT(
(#48,#49,#50)) REPRESENTATION_CONTEXT('Context #1',
  '3D Context with UNIT and UNCERTAINTY') );
#48 = ( LENGTH_UNIT() NAMED_UNIT(*) SI_UNIT(.MILLI.,.METRE.) );
#49 = ( NAMED_UNIT(*) PLANE_ANGLE_UNIT() SI_UNIT($,.RADIAN.) );
#50 = ( NAMED_UNIT(*) SI_UNIT($,.STERADIAN.) SOLID_ANGLE_UNIT() );
#51 = UNCERTAINTY_MEASURE_WITH_UNIT(LENGTH_MEASURE(1.E-07),#48,
  'distance_accuracy_value','confusion accuracy');
#52 = PRODUCT_RELATED_PRODUCT_CATEGORY('part',$,(#7));
#53 = ADVANCED_BREP_SHAPE_REPRESENTATION('',(#11,#54),#152);
#54 = MANIFOLD_SOLID_BREP('',#55);
#55 = CLOSED_SHELL('',(#56,#144,#148));
#56 = ADVANCED_FACE('',(#57),#70,.T.);
#57 = FACE_BOUND('',#58,.T.);
#58 = EDGE_LOOP('',(#59,#93,#116,#143));
#59 = ORIENTED_EDGE('',*,*,#60,.F.);
#60 = EDGE_CURVE('',#61,#61,#63,.T.);
#61 = VERTEX_POINT('',#62);
#62 = CARTESIAN_POINT('',(2.55870196869E+04,4.051509501475E+03,
    6.787225138105E+03));
#63 = SURFACE_CURVE('',#64,(#69,#81),.PCURVE_S1.);
#64 = CIRCLE('',#65,6.847199684369);
#65 = AXIS2_PLACEMENT_3D('',#66,#67,#68);
#66 = CARTESIAN_POINT('',(2.558017248722E+04,4.051509501475E+03,
    6.787225138105E+03));
#67 = DIRECTION('',(-2.86490733158E-15,1.,-5.3403341076E-27));
#68 = DIRECTION('',(1.,2.86490733158E-15,0.));
#69 = PCURVE('',#70,#75);
#70 = CYLINDRICAL_SURFACE('',#71,6.847199684369);
#71 = AXIS2_PLACEMENT_3D('',#72,#73,#74);
#72 = CARTESIAN_POINT('',(2.558017248722E+04,4.04466230179E+03,
    6.787225138105E+03));
#73 = DIRECTION('',(-2.86490733158E-15,1.,-5.3403341076E-27));
#74 = DIRECTION('',(1.,2.86490733158E-15,0.));
#75 = DEFINITIONAL_REPRESENTATION('',(#76),#80);
#76 = LINE('',#77,#78);
#77 = CARTESIAN_POINT('',(0.,6.847199684369));
#78 = VECTOR('',#79,1.);
#79 = DIRECTION('',(1.,0.));
#80 = ( GEOMETRIC_REPRESENTATION_CONTEXT(2) 
PARAMETRIC_REPRESENTATION_CONTEXT() REPRESENTATION_CONTEXT('2D SPACE',''
  ) );
#81 = PCURVE('',#82,#87);
#82 = PLANE('',#83);
#83 = AXIS2_PLACEMENT_3D('',#84,#85,#86);
#84 = CARTESIAN_POINT('',(2.558017248722E+04,4.051509501475E+03,
    6.787225138105E+03));
#85 = DIRECTION('',(-2.86490733158E-15,1.,-5.3403341076E-27));
#86 = DIRECTION('',(1.,2.86490733158E-15,0.));
#87 = DEFINITIONAL_REPRESENTATION('',(#88),#92);
#88 = CIRCLE('',#89,6.847199684369);
#89 = AXIS2_PLACEMENT_2D('',#90,#91);
#90 = CARTESIAN_POINT('',(0.,0.));
#91 = DIRECTION('',(1.,0.));
#92 = ( GEOMETRIC_REPRESENTATION_CONTEXT(2) 
PARAMETRIC_REPRESENTATION_CONTEXT() REPRESENTATION_CONTEXT('2D SPACE',''
  ) );
#93 = ORIENTED_EDGE('',*,*,#94,.F.);
#94 = EDGE_CURVE('',#95,#61,#97,.T.);
#95 = VERTEX_POINT('',#96);
#96 = CARTESIAN_POINT('',(2.55870196869E+04,4.04466230179E+03,
    6.787225138105E+03));
#97 = SEAM_CURVE('',#98,(#102,#109),.PCURVE_S1.);
#98 = LINE('',#99,#100);
#99 = CARTESIAN_POINT('',(2.55870196869E+04,4.04466230179E+03,
    6.787225138105E+03));
#100 = VECTOR('',#101,1.);
#101 = DIRECTION('',(-2.86490733158E-15,1.,-5.3403341076E-27));
#102 = PCURVE('',#70,#103);
#103 = DEFINITIONAL_REPRESENTATION('',(#104),#108);
#104 = LINE('',#105,#106);
#105 = CARTESIAN_POINT('',(6.28318530718,-0.));
#106 = VECTOR('',#107,1.);
#107 = DIRECTION('',(0.,1.));
#108 = ( GEOMETRIC_REPRESENTATION_CONTEXT(2) 
PARAMETRIC_REPRESENTATION_CONTEXT() REPRESENTATION_CONTEXT('2D SPACE',''
  ) );
#109 = PCURVE('',#70,#110);
#110 = DEFINITIONAL_REPRESENTATION('',(#111),#115);
#111 = LINE('',#112,#113);
#112 = CARTESIAN_POINT('',(0.,-0.));
#113 = VECTOR('',#114,1.);
#114 = DIRECTION('',(0.,1.));
#115 = ( GEOMETRIC_REPRESENTATION_CONTEXT(2) 
PARAMETRIC_REPRESENTATION_CONTEXT() REPRESENTATION_CONTEXT('2D SPACE',''
  ) );
#116 = ORIENTED_EDGE('',*,*,#117,.T.);
#117 = EDGE_CURVE('',#95,#95,#118,.T.);
#118 = SURFACE_CURVE('',#119,(#124,#131),.PCURVE_S1.);
#119 = CIRCLE('',#120,6.847199684369);
#120 = AXIS2_PLACEMENT_3D('',#121,#122,#123);
#121 = CARTESIAN_POINT('',(2.558017248722E+04,4.04466230179E+03,
    6.787225138105E+03));
#122 = DIRECTION('',(-2.86490733158E-15,1.,-5.3403341076E-27));
#123 = DIRECTION('',(1.,2.86490733158E-15,0.));
#124 = PCURVE('',#70,#125);
#125 = DEFINITIONAL_REPRESENTATION('',(#126),#130);
#126 = LINE('',#127,#128);
#127 = CARTESIAN_POINT('',(0.,0.));
#128 = VECTOR('',#129,1.);
#129 = DIRECTION('',(1.,0.));
#130 = ( GEOMETRIC_REPRESENTATION_CONTEXT(2) 
PARAMETRIC_REPRESENTATION_CONTEXT() REPRESENTATION_CONTEXT('2D SPACE',''
  ) );
#131 = PCURVE('',#132,#137);
#132 = PLANE('',#133);
#133 = AXIS2_PLACEMENT_3D('',#134,#135,#136);
#134 = CARTESIAN_POINT('',(2.558017248722E+04,4.04466230179E+03,
    6.787225138105E+03));
#135 = DIRECTION('',(-2.86490733158E-15,1.,-5.3403341076E-27));
#136 = DIRECTION('',(1.,2.86490733158E-15,0.));
#137 = DEFINITIONAL_REPRESENTATION('',(#138),#142);
#138 = CIRCLE('',#139,6.847199684369);
#139 = AXIS2_PLACEMENT_2D('',#140,#141);
#140 = CARTESIAN_POINT('',(0.,0.));
#141 = DIRECTION('',(1.,0.));
#142 = ( GEOMETRIC_REPRESENTATION_CONTEXT(2) 
PARAMETRIC_REPRESENTATION_CONTEXT() REPRESENTATION_CONTEXT('2D SPACE',''
  ) );
#143 = ORIENTED_EDGE('',*,*,#94,.T.);
#144 = ADVANCED_FACE('',(#145),#82,.T.);
#145 = FACE_BOUND('',#146,.T.);
#146 = EDGE_LOOP('',(#147));
#147 = ORIENTED_EDGE('',*,*,#60,.T.);
#148 = ADVANCED_FACE('',(#149),#132,.F.);
#149 = FACE_BOUND('',#150,.T.);
#150 = EDGE_LOOP('',(#151));
#151 = ORIENTED_EDGE('',*,*,#117,.F.);
#152 = ( GEOMETRIC_REPRESENTATION_CONTEXT(3) 
GLOBAL_UNCERTAINTY_ASSIGNED_CONTEXT((#156)) GLOBAL_UNIT_ASSIGNED_CONTEXT
((#153,#154,#155)) REPRESENTATION_CONTEXT('Context #1',
  '3D Context with UNIT and UNCERTAINTY') );
#153 = ( LENGTH_UNIT() NAMED_UNIT(*) SI_UNIT(.MILLI.,.METRE.) );
#154 = ( NAMED_UNIT(*) PLANE_ANGLE_UNIT() SI_UNIT($,.RADIAN.) );
#155 = ( NAMED_UNIT(*) SI_UNIT($,.STERADIAN.) SOLID_ANGLE_UNIT() );
#156 = UNCERTAINTY_MEASURE_WITH_UNIT(LENGTH_MEASURE(1.E-07),#153,
  'distance_accuracy_value','confusion accuracy');
#157 = SHAPE_DEFINITION_REPRESENTATION(#158,#53);
#158 = PRODUCT_DEFINITION_SHAPE('','',#159);
#159 = PRODUCT_DEFINITION('design','',#160,#163);
#160 = PRODUCT_DEFINITION_FORMATION('','',#161);
#161 = PRODUCT('Open CASCADE STEP translator 7.5 4.1',
  'Open CASCADE STEP translator 7.5 4.1','',(#162));
#162 = PRODUCT_CONTEXT('',#2,'mechanical');
#163 = PRODUCT_DEFINITION_CONTEXT('part definition',#2,'design');
#164 = CONTEXT_DEPENDENT_SHAPE_REPRESENTATION(#165,#167);
#165 = ( REPRESENTATION_RELATIONSHIP('','',#53,#10) 
REPRESENTATION_RELATIONSHIP_WITH_TRANSFORMATION(#166) 
SHAPE_REPRESENTATION_RELATIONSHIP() );
#166 = ITEM_DEFINED_TRANSFORMATION('','',#11,#15);
#167 = PRODUCT_DEFINITION_SHAPE('Placement','Placement of an item',#168
  );
#168 = NEXT_ASSEMBLY_USAGE_OCCURRENCE('288','','',#5,#159,$);
#169 = PRODUCT_RELATED_PRODUCT_CATEGORY('part',$,(#161));
#170 = ADVANCED_BREP_SHAPE_REPRESENTATION('',(#11,#171),#269);
#171 = MANIFOLD_SOLID_BREP('',#172);
#172 = CLOSED_SHELL('',(#173,#261,#265));
#173 = ADVANCED_FACE('',(#174),#187,.T.);
#174 = FACE_BOUND('',#175,.T.);
#175 = EDGE_LOOP('',(#176,#210,#233,#260));
#176 = ORIENTED_EDGE('',*,*,#177,.F.);
#177 = EDGE_CURVE('',#178,#178,#180,.T.);
#178 = VERTEX_POINT('',#179);
#179 = CARTESIAN_POINT('',(2.586884683201E+04,4.051509501475E+03,
    6.787225138105E+03));
#180 = SURFACE_CURVE('',#181,(#186,#198),.PCURVE_S1.);
#181 = CIRCLE('',#182,6.847199684369);
#182 = AXIS2_PLACEMENT_3D('',#183,#184,#185);
#183 = CARTESIAN_POINT('',(2.586199963232E+04,4.051509501475E+03,
    6.787225138105E+03));
#184 = DIRECTION('',(-2.86490733158E-15,1.,-5.3403341076E-27));
#185 = DIRECTION('',(1.,2.86490733158E-15,0.));
#186 = PCURVE('',#187,#192);
#187 = CYLINDRICAL_SURFACE('',#188,6.847199684369);
#188 = AXIS2_PLACEMENT_3D('',#189,#190,#191);
#189 = CARTESIAN_POINT('',(2.586199963232E+04,4.04466230179E+03,
    6.787225138105E+03));
#190 = DIRECTION('',(-2.86490733158E-15,1.,-5.3403341076E-27));
#191 = DIRECTION('',(1.,2.86490733158E-15,0.));
#192 = DEFINITIONAL_REPRESENTATION('',(#193),#197);
#193 = LINE('',#194,#195);
#194 = CARTESIAN_POINT('',(0.,6.847199684369));
#195 = VECTOR('',#196,1.);
#196 = DIRECTION('',(1.,0.));
#197 = ( GEOMETRIC_REPRESENTATION_CONTEXT(2) 
PARAMETRIC_REPRESENTATION_CONTEXT() REPRESENTATION_CONTEXT('2D SPACE',''
  ) );
#198 = PCURVE('',#199,#204);
#199 = PLANE('',#200);
#200 = AXIS2_PLACEMENT_3D('',#201,#202,#203);
#201 = CARTESIAN_POINT('',(2.586199963232E+04,4.051509501475E+03,
    6.787225138105E+03));
#202 = DIRECTION('',(-2.86490733158E-15,1.,-5.3403341076E-27));
#203 = DIRECTION('',(1.,2.86490733158E-15,0.));
#204 = DEFINITIONAL_REPRESENTATION('',(#205),#209);
#205 = CIRCLE('',#206,6.847199684369);
#206 = AXIS2_PLACEMENT_2D('',#207,#208);
#207 = CARTESIAN_POINT('',(0.,0.));
#208 = DIRECTION('',(1.,0.));
#209 = ( GEOMETRIC_REPRESENTATION_CONTEXT(2) 
PARAMETRIC_REPRESENTATION_CONTEXT() REPRESENTATION_CONTEXT('2D SPACE',''
  ) );
#210 = ORIENTED_EDGE('',*,*,#211,.F.);
#211 = EDGE_CURVE('',#212,#178,#214,.T.);
#212 = VERTEX_POINT('',#213);
#213 = CARTESIAN_POINT('',(2.586884683201E+04,4.04466230179E+03,
    6.787225138105E+03));
#214 = SEAM_CURVE('',#215,(#219,#226),.PCURVE_S1.);
#215 = LINE('',#216,#217);
#216 = CARTESIAN_POINT('',(2.586884683201E+04,4.04466230179E+03,
    6.787225138105E+03));
#217 = VECTOR('',#218,1.);
#218 = DIRECTION('',(-2.86490733158E-15,1.,-5.3403341076E-27));
#219 = PCURVE('',#187,#220);
#220 = DEFINITIONAL_REPRESENTATION('',(#221),#225);
#221 = LINE('',#222,#223);
#222 = CARTESIAN_POINT('',(6.28318530718,-0.));
#223 = VECTOR('',#224,1.);
#224 = DIRECTION('',(0.,1.));
#225 = ( GEOMETRIC_REPRESENTATION_CONTEXT(2) 
PARAMETRIC_REPRESENTATION_CONTEXT() REPRESENTATION_CONTEXT('2D SPACE',''
  ) );
#226 = PCURVE('',#187,#227);
#227 = DEFINITIONAL_REPRESENTATION('',(#228),#232);
#228 = LINE('',#229,#230);
#229 = CARTESIAN_POINT('',(0.,-0.));
#230 = VECTOR('',#231,1.);
#231 = DIRECTION('',(0.,1.));
#232 = ( GEOMETRIC_REPRESENTATION_CONTEXT(2) 
PARAMETRIC_REPRESENTATION_CONTEXT() REPRESENTATION_CONTEXT('2D SPACE',''
  ) );
#233 = ORIENTED_EDGE('',*,*,#234,.T.);
#234 = EDGE_CURVE('',#212,#212,#235,.T.);
#235 = SURFACE_CURVE('',#236,(#241,#248),.PCURVE_S1.);
#236 = CIRCLE('',#237,6.847199684369);
#237 = AXIS2_PLACEMENT_3D('',#238,#239,#240);
#238 = CARTESIAN_POINT('',(2.586199963232E+04,4.04466230179E+03,
    6.787225138105E+03));
#239 = DIRECTION('',(-2.86490733158E-15,1.,-5.3403341076E-27));
#240 = DIRECTION('',(1.,2.86490733158E-15,0.));
#241 = PCURVE('',#187,#242);
#242 = DEFINITIONAL_REPRESENTATION('',(#243),#247);
#243 = LINE('',#244,#245);
#244 = CARTESIAN_POINT('',(0.,0.));
#245 = VECTOR('',#246,1.);
#246 = DIRECTION('',(1.,0.));
#247 = ( GEOMETRIC_REPRESENTATION_CONTEXT(2) 
PARAMETRIC_REPRESENTATION_CONTEXT() REPRESENTATION_CONTEXT('2D SPACE',''
  ) );
#248 = PCURVE('',#249,#254);
#249 = PLANE('',#250);
#250 = AXIS2_PLACEMENT_3D('',#251,#252,#253);
#251 = CARTESIAN_POINT('',(2.586199963232E+04,4.04466230179E+03,
    6.787225138105E+03));
#252 = DIRECTION('',(-2.86490733158E-15,1.,-5.3403341076E-27));
#253 = DIRECTION('',(1.,2.86490733158E-15,0.));
#254 = DEFINITIONAL_REPRESENTATION('',(#255),#259);
#255 = CIRCLE('',#256,6.847199684369);
#256 = AXIS2_PLACEMENT_2D('',#257,#258);
#257 = CARTESIAN_POINT('',(0.,0.));
#258 = DIRECTION('',(1.,0.));
#259 = ( GEOMETRIC_REPRESENTATION_CONTEXT(2) 
PARAMETRIC_REPRESENTATION_CONTEXT() REPRESENTATION_CONTEXT('2D SPACE',''
  ) );
#260 = ORIENTED_EDGE('',*,*,#211,.T.);
#261 = ADVANCED_FACE('',(#262),#199,.T.);
#262 = FACE_BOUND('',#263,.T.);
#263 = EDGE_LOOP('',(#264));
#264 = ORIENTED_EDGE('',*,*,#177,.T.);
#265 = ADVANCED_FACE('',(#266),#249,.F.);
#266 = FACE_BOUND('',#267,.T.);
#267 = EDGE_LOOP('',(#268));
#268 = ORIENTED_EDGE('',*,*,#234,.F.);
#269 = ( GEOMETRIC_REPRESENTATION_CONTEXT(3) 
GLOBAL_UNCERTAINTY_ASSIGNED_CONTEXT((#273)) GLOBAL_UNIT_ASSIGNED_CONTEXT
((#270,#271,#272)) REPRESENTATION_CONTEXT('Context #1',
  '3D Context with UNIT and UNCERTAINTY') );
#270 = ( LENGTH_UNIT() NAMED_UNIT(*) SI_UNIT(.MILLI.,.METRE.) );
#271 = ( NAMED_UNIT(*) PLANE_ANGLE_UNIT() SI_UNIT($,.RADIAN.) );
#272 = ( NAMED_UNIT(*) SI_UNIT($,.STERADIAN.) SOLID_ANGLE_UNIT() );
#273 = UNCERTAINTY_MEASURE_WITH_UNIT(LENGTH_MEASURE(1.E-07),#270,
  'distance_accuracy_value','confusion accuracy');
#274 = SHAPE_DEFINITION_REPRESENTATION(#275,#170);
#275 = PRODUCT_DEFINITION_SHAPE('','',#276);
#276 = PRODUCT_DEFINITION('design','',#277,#280);
#277 = PRODUCT_DEFINITION_FORMATION('','',#278);
#278 = PRODUCT('Open CASCADE STEP translator 7.5 4.2',
  'Open CASCADE STEP translator 7.5 4.2','',(#279));
#279 = PRODUCT_CONTEXT('',#2,'mechanical');
#280 = PRODUCT_DEFINITION_CONTEXT('part definition',#2,'design');
#281 = CONTEXT_DEPENDENT_SHAPE_REPRESENTATION(#282,#284);
#282 = ( REPRESENTATION_RELATIONSHIP('','',#170,#10) 
REPRESENTATION_RELATIONSHIP_WITH_TRANSFORMATION(#283) 
SHAPE_REPRESENTATION_RELATIONSHIP() );
#283 = ITEM_DEFINED_TRANSFORMATION('','',#11,#19);
#284 = PRODUCT_DEFINITION_SHAPE('Placement','Placement of an item',#285
  );
#285 = NEXT_ASSEMBLY_USAGE_OCCURRENCE('289','','',#5,#276,$);
#286 = PRODUCT_RELATED_PRODUCT_CATEGORY('part',$,(#278));
#287 = ADVANCED_BREP_SHAPE_REPRESENTATION('',(#11,#288),#386);
#288 = MANIFOLD_SOLID_BREP('',#289);
#289 = CLOSED_SHELL('',(#290,#378,#382));
#290 = ADVANCED_FACE('',(#291),#304,.T.);
#291 = FACE_BOUND('',#292,.T.);
#292 = EDGE_LOOP('',(#293,#327,#350,#377));
#293 = ORIENTED_EDGE('',*,*,#294,.F.);
#294 = EDGE_CURVE('',#295,#295,#297,.T.);
#295 = VERTEX_POINT('',#296);
#296 = CARTESIAN_POINT('',(2.615067397711E+04,4.051509501475E+03,
    6.787225138105E+03));
#297 = SURFACE_CURVE('',#298,(#303,#315),.PCURVE_S1.);
#298 = CIRCLE('',#299,6.847199684369);
#299 = AXIS2_PLACEMENT_3D('',#300,#301,#302);
#300 = CARTESIAN_POINT('',(2.614382677743E+04,4.051509501475E+03,
    6.787225138105E+03));
#301 = DIRECTION('',(-2.86490733158E-15,1.,-5.3403341076E-27));
#302 = DIRECTION('',(1.,2.86490733158E-15,0.));
#303 = PCURVE('',#304,#309);
#304 = CYLINDRICAL_SURFACE('',#305,6.847199684369);
#305 = AXIS2_PLACEMENT_3D('',#306,#307,#308);
#306 = CARTESIAN_POINT('',(2.614382677743E+04,4.04466230179E+03,
    6.787225138105E+03));
#307 = DIRECTION('',(-2.86490733158E-15,1.,-5.3403341076E-27));
#308 = DIRECTION('',(1.,2.86490733158E-15,0.));
#309 = DEFINITIONAL_REPRESENTATION('',(#310),#314);
#310 = LINE('',#311,#312);
#311 = CARTESIAN_POINT('',(0.,6.847199684369));
#312 = VECTOR('',#313,1.);
#313 = DIRECTION('',(1.,0.));
#314 = ( GEOMETRIC_REPRESENTATION_CONTEXT(2) 
PARAMETRIC_REPRESENTATION_CONTEXT() REPRESENTATION_CONTEXT('2D SPACE',''
  ) );
#315 = PCURVE('',#316,#321);
#316 = PLANE('',#317);
#317 = AXIS2_PLACEMENT_3D('',#318,#319,#320);
#318 = CARTESIAN_POINT('',(2.614382677743E+04,4.051509501475E+03,
    6.787225138105E+03));
#319 = DIRECTION('',(-2.86490733158E-15,1.,-5.3403341076E-27));
#320 = DIRECTION('',(1.,2.86490733158E-15,0.));
#321 = DEFINITIONAL_REPRESENTATION('',(#322),#326);
#322 = CIRCLE('',#323,6.847199684369);
#323 = AXIS2_PLACEMENT_2D('',#324,#325);
#324 = CARTESIAN_POINT('',(0.,0.));
#325 = DIRECTION('',(1.,0.));
#326 = ( GEOMETRIC_REPRESENTATION_CONTEXT(2) 
PARAMETRIC_REPRESENTATION_CONTEXT() REPRESENTATION_CONTEXT('2D SPACE',''
  ) );
#327 = ORIENTED_EDGE('',*,*,#328,.F.);
#328 = EDGE_CURVE('',#329,#295,#331,.T.);
#329 = VERTEX_POINT('',#330);
#330 = CARTESIAN_POINT('',(2.615067397711E+04,4.04466230179E+03,
    6.787225138105E+03));
#331 = SEAM_CURVE('',#332,(#336,#343),.PCURVE_S1.);
#332 = LINE('',#333,#334);
#333 = CARTESIAN_POINT('',(2.615067397711E+04,4.04466230179E+03,
    6.787225138105E+03));
#334 = VECTOR('',#335,1.);
#335 = DIRECTION('',(-2.86490733158E-15,1.,-5.3403341076E-27));
#336 = PCURVE('',#304,#337);
#337 = DEFINITIONAL_REPRESENTATION('',(#338),#342);
#338 = LINE('',#339,#340);
#339 = CARTESIAN_POINT('',(6.28318530718,-0.));
#340 = VECTOR('',#341,1.);
#341 = DIRECTION('',(0.,1.));
#342 = ( GEOMETRIC_REPRESENTATION_CONTEXT(2) 
PARAMETRIC_REPRESENTATION_CONTEXT() REPRESENTATION_CONTEXT('2D SPACE',''
  ) );
#343 = PCURVE('',#304,#344);
#344 = DEFINITIONAL_REPRESENTATION('',(#345),#349);
#345 = LINE('',#346,#347);
#346 = CARTESIAN_POINT('',(0.,-0.));
#347 = VECTOR('',#348,1.);
#348 = DIRECTION('',(0.,1.));
#349 = ( GEOMETRIC_REPRESENTATION_CONTEXT(2) 
PARAMETRIC_REPRESENTATION_CONTEXT() REPRESENTATION_CONTEXT('2D SPACE',''
  ) );
#350 = ORIENTED_EDGE('',*,*,#351,.T.);
#351 = EDGE_CURVE('',#329,#329,#352,.T.);
#352 = SURFACE_CURVE('',#353,(#358,#365),.PCURVE_S1.);
#353 = CIRCLE('',#354,6.847199684369);
#354 = AXIS2_PLACEMENT_3D('',#355,#356,#357);
#355 = CARTESIAN_POINT('',(2.614382677743E+04,4.04466230179E+03,
    6.787225138105E+03));
#356 = DIRECTION('',(-2.86490733158E-15,1.,-5.3403341076E-27));
#357 = DIRECTION('',(1.,2.86490733158E-15,0.));
#358 = PCURVE('',#304,#359);
#359 = DEFINITIONAL_REPRESENTATION('',(#360),#364);
#360 = LINE('',#361,#362);
#361 = CARTESIAN_POINT('',(0.,0.));
#362 = VECTOR('',#363,1.);
#363 = DIRECTION('',(1.,0.));
#364 = ( GEOMETRIC_REPRESENTATION_CONTEXT(2) 
PARAMETRIC_REPRESENTATION_CONTEXT() REPRESENTATION_CONTEXT('2D SPACE',''
  ) );
#365 = PCURVE('',#366,#371);
#366 = PLANE('',#367);
#367 = AXIS2_PLACEMENT_3D('',#368,#369,#370);
#368 = CARTESIAN_POINT('',(2.614382677743E+04,4.04466230179E+03,
    6.787225138105E+03));
#369 = DIRECTION('',(-2.86490733158E-15,1.,-5.3403341076E-27));
#370 = DIRECTION('',(1.,2.86490733158E-15,0.));
#371 = DEFINITIONAL_REPRESENTATION('',(#372),#376);
#372 = CIRCLE('',#373,6.847199684369);
#373 = AXIS2_PLACEMENT_2D('',#374,#375);
#374 = CARTESIAN_POINT('',(0.,0.));
#375 = DIRECTION('',(1.,0.));
#376 = ( GEOMETRIC_REPRESENTATION_CONTEXT(2) 
PARAMETRIC_REPRESENTATION_CONTEXT() REPRESENTATION_CONTEXT('2D SPACE',''
  ) );
#377 = ORIENTED_EDGE('',*,*,#328,.T.);
#378 = ADVANCED_FACE('',(#379),#316,.T.);
#379 = FACE_BOUND('',#380,.T.);
#380 = EDGE_LOOP('',(#381));
#381 = ORIENTED_EDGE('',*,*,#294,.T.);
#382 = ADVANCED_FACE('',(#383),#366,.F.);
#383 = FACE_BOUND('',#384,.T.);
#384 = EDGE_LOOP('',(#385));
#385 = ORIENTED_EDGE('',*,*,#351,.F.);
#386 = ( GEOMETRIC_REPRESENTATION_CONTEXT(3) 
GLOBAL_UNCERTAINTY_ASSIGNED_CONTEXT((#390)) GLOBAL_UNIT_ASSIGNED_CONTEXT
((#387,#388,#389)) REPRESENTATION_CONTEXT('Context #1',
  '3D Context with UNIT and UNCERTAINTY') );
#387 = ( LENGTH_UNIT() NAMED_UNIT(*) SI_UNIT(.MILLI.,.METRE.) );
#388 = ( NAMED_UNIT(*) PLANE_ANGLE_UNIT() SI_UNIT($,.RADIAN.) );
#389 = ( NAMED_UNIT(*) SI_UNIT($,.STERADIAN.) SOLID_ANGLE_UNIT() );
#390 = UNCERTAINTY_MEASURE_WITH_UNIT(LENGTH_MEASURE(1.E-07),#387,
  'distance_accuracy_value','confusion accuracy');
#391 = SHAPE_DEFINITION_REPRESENTATION(#392,#287);
#392 = PRODUCT_DEFINITION_SHAPE('','',#393);
#393 = PRODUCT_DEFINITION('design','',#394,#397);
#394 = PRODUCT_DEFINITION_FORMATION('','',#395);
#395 = PRODUCT('Open CASCADE STEP translator 7.5 4.3',
  'Open CASCADE STEP translator 7.5 4.3','',(#396));
#396 = PRODUCT_CONTEXT('',#2,'mechanical');
#397 = PRODUCT_DEFINITION_CONTEXT('part definition',#2,'design');
#398 = CONTEXT_DEPENDENT_SHAPE_REPRESENTATION(#399,#401);
#399 = ( REPRESENTATION_RELATIONSHIP('','',#287,#10) 
REPRESENTATION_RELATIONSHIP_WITH_TRANSFORMATION(#400) 
SHAPE_REPRESENTATION_RELATIONSHIP() );
#400 = ITEM_DEFINED_TRANSFORMATION('','',#11,#23);
#401 = PRODUCT_DEFINITION_SHAPE('Placement','Placement of an item',#402
  );
#402 = NEXT_ASSEMBLY_USAGE_OCCURRENCE('290','','',#5,#393,$);
#403 = PRODUCT_RELATED_PRODUCT_CATEGORY('part',$,(#395));
#404 = ADVANCED_BREP_SHAPE_REPRESENTATION('',(#11,#405),#503);
#405 = MANIFOLD_SOLID_BREP('',#406);
#406 = CLOSED_SHELL('',(#407,#495,#499));
#407 = ADVANCED_FACE('',(#408),#421,.T.);
#408 = FACE_BOUND('',#409,.T.);
#409 = EDGE_LOOP('',(#410,#444,#467,#494));
#410 = ORIENTED_EDGE('',*,*,#411,.F.);
#411 = EDGE_CURVE('',#412,#412,#414,.T.);
#412 = VERTEX_POINT('',#413);
#413 = CARTESIAN_POINT('',(2.643250112221E+04,4.051509501475E+03,
    6.787225138105E+03));
#414 = SURFACE_CURVE('',#415,(#420,#432),.PCURVE_S1.);
#415 = CIRCLE('',#416,6.847199684369);
#416 = AXIS2_PLACEMENT_3D('',#417,#418,#419);
#417 = CARTESIAN_POINT('',(2.642565392253E+04,4.051509501475E+03,
    6.787225138105E+03));
#418 = DIRECTION('',(-2.86490733158E-15,1.,-5.3403341076E-27));
#419 = DIRECTION('',(1.,2.86490733158E-15,0.));
#420 = PCURVE('',#421,#426);
#421 = CYLINDRICAL_SURFACE('',#422,6.847199684369);
#422 = AXIS2_PLACEMENT_3D('',#423,#424,#425);
#423 = CARTESIAN_POINT('',(2.642565392253E+04,4.04466230179E+03,
    6.787225138105E+03));
#424 = DIRECTION('',(-2.86490733158E-15,1.,-5.3403341076E-27));
#425 = DIRECTION('',(1.,2.86490733158E-15,0.));
#426 = DEFINITIONAL_REPRESENTATION('',(#427),#431);
#427 = LINE('',#428,#429);
#428 = CARTESIAN_POINT('',(0.,6.847199684369));
#429 = VECTOR('',#430,1.);
#430 = DIRECTION('',(1.,0.));
#431 = ( GEOMETRIC_REPRESENTATION_CONTEXT(2) 
PARAMETRIC_REPRESENTATION_CONTEXT() REPRESENTATION_CONTEXT('2D SPACE',''
  ) );
#432 = PCURVE('',#433,#438);
#433 = PLANE('',#434);
#434 = AXIS2_PLACEMENT_3D('',#435,#436,#437);
#435 = CARTESIAN_POINT('',(2.642565392253E+04,4.051509501475E+03,
    6.787225138105E+03));
#436 = DIRECTION('',(-2.86490733158E-15,1.,-5.3403341076E-27));
#437 = DIRECTION('',(1.,2.86490733158E-15,0.));
#438 = DEFINITIONAL_REPRESENTATION('',(#439),#443);
#439 = CIRCLE('',#440,6.847199684369);
#440 = AXIS2_PLACEMENT_2D('',#441,#442);
#441 = CARTESIAN_POINT('',(0.,0.));
#442 = DIRECTION('',(1.,0.));
#443 = ( GEOMETRIC_REPRESENTATION_CONTEXT(2) 
PARAMETRIC_REPRESENTATION_CONTEXT() REPRESENTATION_CONTEXT('2D SPACE',''
  ) );
#444 = ORIENTED_EDGE('',*,*,#445,.F.);
#445 = EDGE_CURVE('',#446,#412,#448,.T.);
#446 = VERTEX_POINT('',#447);
#447 = CARTESIAN_POINT('',(2.643250112221E+04,4.04466230179E+03,
    6.787225138105E+03));
#448 = SEAM_CURVE('',#449,(#453,#460),.PCURVE_S1.);
#449 = LINE('',#450,#451);
#450 = CARTESIAN_POINT('',(2.643250112221E+04,4.04466230179E+03,
    6.787225138105E+03));
#451 = VECTOR('',#452,1.);
#452 = DIRECTION('',(-2.86490733158E-15,1.,-5.3403341076E-27));
#453 = PCURVE('',#421,#454);
#454 = DEFINITIONAL_REPRESENTATION('',(#455),#459);
#455 = LINE('',#456,#457);
#456 = CARTESIAN_POINT('',(6.28318530718,-0.));
#457 = VECTOR('',#458,1.);
#458 = DIRECTION('',(0.,1.));
#459 = ( GEOMETRIC_REPRESENTATION_CONTEXT(2) 
PARAMETRIC_REPRESENTATION_CONTEXT() REPRESENTATION_CONTEXT('2D SPACE',''
  ) );
#460 = PCURVE('',#421,#461);
#461 = DEFINITIONAL_REPRESENTATION('',(#462),#466);
#462 = LINE('',#463,#464);
#463 = CARTESIAN_POINT('',(0.,-0.));
#464 = VECTOR('',#465,1.);
#465 = DIRECTION('',(0.,1.));
#466 = ( GEOMETRIC_REPRESENTATION_CONTEXT(2) 
PARAMETRIC_REPRESENTATION_CONTEXT() REPRESENTATION_CONTEXT('2D SPACE',''
  ) );
#467 = ORIENTED_EDGE('',*,*,#468,.T.);
#468 = EDGE_CURVE('',#446,#446,#469,.T.);
#469 = SURFACE_CURVE('',#470,(#475,#482),.PCURVE_S1.);
#470 = CIRCLE('',#471,6.847199684369);
#471 = AXIS2_PLACEMENT_3D('',#472,#473,#474);
#472 = CARTESIAN_POINT('',(2.642565392253E+04,4.04466230179E+03,
    6.787225138105E+03));
#473 = DIRECTION('',(-2.86490733158E-15,1.,-5.3403341076E-27));
#474 = DIRECTION('',(1.,2.86490733158E-15,0.));
#475 = PCURVE('',#421,#476);
#476 = DEFINITIONAL_REPRESENTATION('',(#477),#481);
#477 = LINE('',#478,#479);
#478 = CARTESIAN_POINT('',(0.,0.));
#479 = VECTOR('',#480,1.);
#480 = DIRECTION('',(1.,0.));
#481 = ( GEOMETRIC_REPRESENTATION_CONTEXT(2) 
PARAMETRIC_REPRESENTATION_CONTEXT() REPRESENTATION_CONTEXT('2D SPACE',''
  ) );
#482 = PCURVE('',#483,#488);
#483 = PLANE('',#484);
#484 = AXIS2_PLACEMENT_3D('',#485,#486,#487);
#485 = CARTESIAN_POINT('',(2.642565392253E+04,4.04466230179E+03,
    6.787225138105E+03));
#486 = DIRECTION('',(-2.86490733158E-15,1.,-5.3403341076E-27));
#487 = DIRECTION('',(1.,2.86490733158E-15,0.));
#488 = DEFINITIONAL_REPRESENTATION('',(#489),#493);
#489 = CIRCLE('',#490,6.847199684369);
#490 = AXIS2_PLACEMENT_2D('',#491,#492);
#491 = CARTESIAN_POINT('',(0.,0.));
#492 = DIRECTION('',(1.,0.));
#493 = ( GEOMETRIC_REPRESENTATION_CONTEXT(2) 
PARAMETRIC_REPRESENTATION_CONTEXT() REPRESENTATION_CONTEXT('2D SPACE',''
  ) );
#494 = ORIENTED_EDGE('',*,*,#445,.T.);
#495 = ADVANCED_FACE('',(#496),#433,.T.);
#496 = FACE_BOUND('',#497,.T.);
#497 = EDGE_LOOP('',(#498));
#498 = ORIENTED_EDGE('',*,*,#411,.T.);
#499 = ADVANCED_FACE('',(#500),#483,.F.);
#500 = FACE_BOUND('',#501,.T.);
#501 = EDGE_LOOP('',(#502));
#502 = ORIENTED_EDGE('',*,*,#468,.F.);
#503 = ( GEOMETRIC_REPRESENTATION_CONTEXT(3) 
GLOBAL_UNCERTAINTY_ASSIGNED_CONTEXT((#507)) GLOBAL_UNIT_ASSIGNED_CONTEXT
((#504,#505,#506)) REPRESENTATION_CONTEXT('Context #1',
  '3D Context with UNIT and UNCERTAINTY') );
#504 = ( LENGTH_UNIT() NAMED_UNIT(*) SI_UNIT(.MILLI.,.METRE.) );
#505 = ( NAMED_UNIT(*) PLANE_ANGLE_UNIT() SI_UNIT($,.RADIAN.) );
#506 = ( NAMED_UNIT(*) SI_UNIT($,.STERADIAN.) SOLID_ANGLE_UNIT() );
#507 = UNCERTAINTY_MEASURE_WITH_UNIT(LENGTH_MEASURE(1.E-07),#504,
  'distance_accuracy_value','confusion accuracy');
#508 = SHAPE_DEFINITION_REPRESENTATION(#509,#404);
#509 = PRODUCT_DEFINITION_SHAPE('','',#510);
#510 = PRODUCT_DEFINITION('design','',#511,#514);
#511 = PRODUCT_DEFINITION_FORMATION('','',#512);
#512 = PRODUCT('Open CASCADE STEP translator 7.5 4.4',
  'Open CASCADE STEP translator 7.5 4.4','',(#513));
#513 = PRODUCT_CONTEXT('',#2,'mechanical');
#514 = PRODUCT_DEFINITION_CONTEXT('part definition',#2,'design');
#515 = CONTEXT_DEPENDENT_SHAPE_REPRESENTATION(#516,#518);
#516 = ( REPRESENTATION_RELATIONSHIP('','',#404,#10) 
REPRESENTATION_RELATIONSHIP_WITH_TRANSFORMATION(#517) 
SHAPE_REPRESENTATION_RELATIONSHIP() );
#517 = ITEM_DEFINED_TRANSFORMATION('','',#11,#27);
#518 = PRODUCT_DEFINITION_SHAPE('Placement','Placement of an item',#519
  );
#519 = NEXT_ASSEMBLY_USAGE_OCCURRENCE('291','','',#5,#510,$);
#520 = PRODUCT_RELATED_PRODUCT_CATEGORY('part',$,(#512));
#521 = ADVANCED_BREP_SHAPE_REPRESENTATION('',(#11,#522),#620);
#522 = MANIFOLD_SOLID_BREP('',#523);
#523 = CLOSED_SHELL('',(#524,#612,#616));
#524 = ADVANCED_FACE('',(#525),#538,.T.);
#525 = FACE_BOUND('',#526,.T.);
#526 = EDGE_LOOP('',(#527,#561,#584,#611));
#527 = ORIENTED_EDGE('',*,*,#528,.F.);
#528 = EDGE_CURVE('',#529,#529,#531,.T.);
#529 = VERTEX_POINT('',#530);
#530 = CARTESIAN_POINT('',(2.55870196869E+04,4.051509501475E+03,
    6.763897433971E+03));
#531 = SURFACE_CURVE('',#532,(#537,#549),.PCURVE_S1.);
#532 = CIRCLE('',#533,6.847199684369);
#533 = AXIS2_PLACEMENT_3D('',#534,#535,#536);
#534 = CARTESIAN_POINT('',(2.558017248722E+04,4.051509501475E+03,
    6.763897433971E+03));
#535 = DIRECTION('',(-2.86490733158E-15,1.,-5.3403341076E-27));
#536 = DIRECTION('',(1.,2.86490733158E-15,0.));
#537 = PCURVE('',#538,#543);
#538 = CYLINDRICAL_SURFACE('',#539,6.847199684369);
#539 = AXIS2_PLACEMENT_3D('',#540,#541,#542);
#540 = CARTESIAN_POINT('',(2.558017248722E+04,4.04466230179E+03,
    6.763897433971E+03));
#541 = DIRECTION('',(-2.86490733158E-15,1.,-5.3403341076E-27));
#542 = DIRECTION('',(1.,2.86490733158E-15,0.));
#543 = DEFINITIONAL_REPRESENTATION('',(#544),#548);
#544 = LINE('',#545,#546);
#545 = CARTESIAN_POINT('',(0.,6.847199684369));
#546 = VECTOR('',#547,1.);
#547 = DIRECTION('',(1.,0.));
#548 = ( GEOMETRIC_REPRESENTATION_CONTEXT(2) 
PARAMETRIC_REPRESENTATION_CONTEXT() REPRESENTATION_CONTEXT('2D SPACE',''
  ) );
#549 = PCURVE('',#550,#555);
#550 = PLANE('',#551);
#551 = AXIS2_PLACEMENT_3D('',#552,#553,#554);
#552 = CARTESIAN_POINT('',(2.558017248722E+04,4.051509501475E+03,
    6.763897433971E+03));
#553 = DIRECTION('',(-2.86490733158E-15,1.,-5.3403341076E-27));
#554 = DIRECTION('',(1.,2.86490733158E-15,0.));
#555 = DEFINITIONAL_REPRESENTATION('',(#556),#560);
#556 = CIRCLE('',#557,6.847199684369);
#557 = AXIS2_PLACEMENT_2D('',#558,#559);
#558 = CARTESIAN_POINT('',(0.,0.));
#559 = DIRECTION('',(1.,0.));
#560 = ( GEOMETRIC_REPRESENTATION_CONTEXT(2) 
PARAMETRIC_REPRESENTATION_CONTEXT() REPRESENTATION_CONTEXT('2D SPACE',''
  ) );
#561 = ORIENTED_EDGE('',*,*,#562,.F.);
#562 = EDGE_CURVE('',#563,#529,#565,.T.);
#563 = VERTEX_POINT('',#564);
#564 = CARTESIAN_POINT('',(2.55870196869E+04,4.04466230179E+03,
    6.763897433971E+03));
#565 = SEAM_CURVE('',#566,(#570,#577),.PCURVE_S1.);
#566 = LINE('',#567,#568);
#567 = CARTESIAN_POINT('',(2.55870196869E+04,4.04466230179E+03,
    6.763897433971E+03));
#568 = VECTOR('',#569,1.);
#569 = DIRECTION('',(-2.86490733158E-15,1.,-5.3403341076E-27));
#570 = PCURVE('',#538,#571);
#571 = DEFINITIONAL_REPRESENTATION('',(#572),#576);
#572 = LINE('',#573,#574);
#573 = CARTESIAN_POINT('',(6.28318530718,-0.));
#574 = VECTOR('',#575,1.);
#575 = DIRECTION('',(0.,1.));
#576 = ( GEOMETRIC_REPRESENTATION_CONTEXT(2) 
PARAMETRIC_REPRESENTATION_CONTEXT() REPRESENTATION_CONTEXT('2D SPACE',''
  ) );
#577 = PCURVE('',#538,#578);
#578 = DEFINITIONAL_REPRESENTATION('',(#579),#583);
#579 = LINE('',#580,#581);
#580 = CARTESIAN_POINT('',(0.,-0.));
#581 = VECTOR('',#582,1.);
#582 = DIRECTION('',(0.,1.));
#583 = ( GEOMETRIC_REPRESENTATION_CONTEXT(2) 
PARAMETRIC_REPRESENTATION_CONTEXT() REPRESENTATION_CONTEXT('2D SPACE',''
  ) );
#584 = ORIENTED_EDGE('',*,*,#585,.T.);
#585 = EDGE_CURVE('',#563,#563,#586,.T.);
#586 = SURFACE_CURVE('',#587,(#592,#599),.PCURVE_S1.);
#587 = CIRCLE('',#588,6.847199684369);
#588 = AXIS2_PLACEMENT_3D('',#589,#590,#591);
#589 = CARTESIAN_POINT('',(2.558017248722E+04,4.04466230179E+03,
    6.763897433971E+03));
#590 = DIRECTION('',(-2.86490733158E-15,1.,-5.3403341076E-27));
#591 = DIRECTION('',(1.,2.86490733158E-15,0.));
#592 = PCURVE('',#538,#593);
#593 = DEFINITIONAL_REPRESENTATION('',(#594),#598);
#594 = LINE('',#595,#596);
#595 = CARTESIAN_POINT('',(0.,0.));
#596 = VECTOR('',#597,1.);
#597 = DIRECTION('',(1.,0.));
#598 = ( GEOMETRIC_REPRESENTATION_CONTEXT(2) 
PARAMETRIC_REPRESENTATION_CONTEXT() REPRESENTATION_CONTEXT('2D SPACE',''
  ) );
#599 = PCURVE('',#600,#605);
#600 = PLANE('',#601);
#601 = AXIS2_PLACEMENT_3D('',#602,#603,#604);
#602 = CARTESIAN_POINT('',(2.558017248722E+04,4.04466230179E+03,
    6.763897433971E+03));
#603 = DIRECTION('',(-2.86490733158E-15,1.,-5.3403341076E-27));
#604 = DIRECTION('',(1.,2.86490733158E-15,0.));
#605 = DEFINITIONAL_REPRESENTATION('',(#606),#610);
#606 = CIRCLE('',#607,6.847199684369);
#607 = AXIS2_PLACEMENT_2D('',#608,#609);
#608 = CARTESIAN_POINT('',(0.,0.));
#609 = DIRECTION('',(1.,0.));
#610 = ( GEOMETRIC_REPRESENTATION_CONTEXT(2) 
PARAMETRIC_REPRESENTATION_CONTEXT() REPRESENTATION_CONTEXT('2D SPACE',''
  ) );
#611 = ORIENTED_EDGE('',*,*,#562,.T.);
#612 = ADVANCED_FACE('',(#613),#550,.T.);
#613 = FACE_BOUND('',#614,.T.);
#614 = EDGE_LOOP('',(#615));
#615 = ORIENTED_EDGE('',*,*,#528,.T.);
#616 = ADVANCED_FACE('',(#617),#600,.F.);
#617 = FACE_BOUND('',#618,.T.);
#618 = EDGE_LOOP('',(#619));
#619 = ORIENTED_EDGE('',*,*,#585,.F.);
#620 = ( GEOMETRIC_REPRESENTATION_CONTEXT(3) 
GLOBAL_UNCERTAINTY_ASSIGNED_CONTEXT((#624)) GLOBAL_UNIT_ASSIGNED_CONTEXT
((#621,#622,#623)) REPRESENTATION_CONTEXT('Context #1',
  '3D Context with UNIT and UNCERTAINTY') );
#621 = ( LENGTH_UNIT() NAMED_UNIT(*) SI_UNIT(.MILLI.,.METRE.) );
#622 = ( NAMED_UNIT(*) PLANE_ANGLE_UNIT() SI_UNIT($,.RADIAN.) );
#623 = ( NAMED_UNIT(*) SI_UNIT($,.STERADIAN.) SOLID_ANGLE_UNIT() );
#624 = UNCERTAINTY_MEASURE_WITH_UNIT(LENGTH_MEASURE(1.E-07),#621,
  'distance_accuracy_value','confusion accuracy');
#625 = SHAPE_DEFINITION_REPRESENTATION(#626,#521);
#626 = PRODUCT_DEFINITION_SHAPE('','',#627);
#627 = PRODUCT_DEFINITION('design','',#628,#631);
#628 = PRODUCT_DEFINITION_FORMATION('','',#629);
#629 = PRODUCT('Open CASCADE STEP translator 7.5 4.5',
  'Open CASCADE STEP translator 7.5 4.5','',(#630));
#630 = PRODUCT_CONTEXT('',#2,'mechanical');
#631 = PRODUCT_DEFINITION_CONTEXT('part definition',#2,'design');
#632 = CONTEXT_DEPENDENT_SHAPE_REPRESENTATION(#633,#635);
#633 = ( REPRESENTATION_RELATIONSHIP('','',#521,#10) 
REPRESENTATION_RELATIONSHIP_WITH_TRANSFORMATION(#634) 
SHAPE_REPRESENTATION_RELATIONSHIP() );
#634 = ITEM_DEFINED_TRANSFORMATION('','',#11,#31);
#635 = PRODUCT_DEFINITION_SHAPE('Placement','Placement of an item',#636
  );
#636 = NEXT_ASSEMBLY_USAGE_OCCURRENCE('292','','',#5,#627,$);
#637 = PRODUCT_RELATED_PRODUCT_CATEGORY('part',$,(#629));
#638 = ADVANCED_BREP_SHAPE_REPRESENTATION('',(#11,#639),#737);
#639 = MANIFOLD_SOLID_BREP('',#640);
#640 = CLOSED_SHELL('',(#641,#729,#733));
#641 = ADVANCED_FACE('',(#642),#655,.T.);
#642 = FACE_BOUND('',#643,.T.);
#643 = EDGE_LOOP('',(#644,#678,#701,#728));
#644 = ORIENTED_EDGE('',*,*,#645,.F.);
#645 = EDGE_CURVE('',#646,#646,#648,.T.);
#646 = VERTEX_POINT('',#647);
#647 = CARTESIAN_POINT('',(2.586884683201E+04,4.051509501475E+03,
    6.763897433971E+03));
#648 = SURFACE_CURVE('',#649,(#654,#666),.PCURVE_S1.);
#649 = CIRCLE('',#650,6.847199684369);
#650 = AXIS2_PLACEMENT_3D('',#651,#652,#653);
#651 = CARTESIAN_POINT('',(2.586199963232E+04,4.051509501475E+03,
    6.763897433971E+03));
#652 = DIRECTION('',(-2.86490733158E-15,1.,-5.3403341076E-27));
#653 = DIRECTION('',(1.,2.86490733158E-15,0.));
#654 = PCURVE('',#655,#660);
#655 = CYLINDRICAL_SURFACE('',#656,6.847199684369);
#656 = AXIS2_PLACEMENT_3D('',#657,#658,#659);
#657 = CARTESIAN_POINT('',(2.586199963232E+04,4.04466230179E+03,
    6.763897433971E+03));
#658 = DIRECTION('',(-2.86490733158E-15,1.,-5.3403341076E-27));
#659 = DIRECTION('',(1.,2.86490733158E-15,0.));
#660 = DEFINITIONAL_REPRESENTATION('',(#661),#665);
#661 = LINE('',#662,#663);
#662 = CARTESIAN_POINT('',(0.,6.847199684369));
#663 = VECTOR('',#664,1.);
#664 = DIRECTION('',(1.,0.));
#665 = ( GEOMETRIC_REPRESENTATION_CONTEXT(2) 
PARAMETRIC_REPRESENTATION_CONTEXT() REPRESENTATION_CONTEXT('2D SPACE',''
  ) );
#666 = PCURVE('',#667,#672);
#667 = PLANE('',#668);
#668 = AXIS2_PLACEMENT_3D('',#669,#670,#671);
#669 = CARTESIAN_POINT('',(2.586199963232E+04,4.051509501475E+03,
    6.763897433971E+03));
#670 = DIRECTION('',(-2.86490733158E-15,1.,-5.3403341076E-27));
#671 = DIRECTION('',(1.,2.86490733158E-15,0.));
#672 = DEFINITIONAL_REPRESENTATION('',(#673),#677);
#673 = CIRCLE('',#674,6.847199684369);
#674 = AXIS2_PLACEMENT_2D('',#675,#676);
#675 = CARTESIAN_POINT('',(0.,0.));
#676 = DIRECTION('',(1.,0.));
#677 = ( GEOMETRIC_REPRESENTATION_CONTEXT(2) 
PARAMETRIC_REPRESENTATION_CONTEXT() REPRESENTATION_CONTEXT('2D SPACE',''
  ) );
#678 = ORIENTED_EDGE('',*,*,#679,.F.);
#679 = EDGE_CURVE('',#680,#646,#682,.T.);
#680 = VERTEX_POINT('',#681);
#681 = CARTESIAN_POINT('',(2.586884683201E+04,4.04466230179E+03,
    6.763897433971E+03));
#682 = SEAM_CURVE('',#683,(#687,#694),.PCURVE_S1.);
#683 = LINE('',#684,#685);
#684 = CARTESIAN_POINT('',(2.586884683201E+04,4.04466230179E+03,
    6.763897433971E+03));
#685 = VECTOR('',#686,1.);
#686 = DIRECTION('',(-2.86490733158E-15,1.,-5.3403341076E-27));
#687 = PCURVE('',#655,#688);
#688 = DEFINITIONAL_REPRESENTATION('',(#689),#693);
#689 = LINE('',#690,#691);
#690 = CARTESIAN_POINT('',(6.28318530718,-0.));
#691 = VECTOR('',#692,1.);
#692 = DIRECTION('',(0.,1.));
#693 = ( GEOMETRIC_REPRESENTATION_CONTEXT(2) 
PARAMETRIC_REPRESENTATION_CONTEXT() REPRESENTATION_CONTEXT('2D SPACE',''
  ) );
#694 = PCURVE('',#655,#695);
#695 = DEFINITIONAL_REPRESENTATION('',(#696),#700);
#696 = LINE('',#697,#698);
#697 = CARTESIAN_POINT('',(0.,-0.));
#698 = VECTOR('',#699,1.);
#699 = DIRECTION('',(0.,1.));
#700 = ( GEOMETRIC_REPRESENTATION_CONTEXT(2) 
PARAMETRIC_REPRESENTATION_CONTEXT() REPRESENTATION_CONTEXT('2D SPACE',''
  ) );
#701 = ORIENTED_EDGE('',*,*,#702,.T.);
#702 = EDGE_CURVE('',#680,#680,#703,.T.);
#703 = SURFACE_CURVE('',#704,(#709,#716),.PCURVE_S1.);
#704 = CIRCLE('',#705,6.847199684369);
#705 = AXIS2_PLACEMENT_3D('',#706,#707,#708);
#706 = CARTESIAN_POINT('',(2.586199963232E+04,4.04466230179E+03,
    6.763897433971E+03));
#707 = DIRECTION('',(-2.86490733158E-15,1.,-5.3403341076E-27));
#708 = DIRECTION('',(1.,2.86490733158E-15,0.));
#709 = PCURVE('',#655,#710);
#710 = DEFINITIONAL_REPRESENTATION('',(#711),#715);
#711 = LINE('',#712,#713);
#712 = CARTESIAN_POINT('',(0.,0.));
#713 = VECTOR('',#714,1.);
#714 = DIRECTION('',(1.,0.));
#715 = ( GEOMETRIC_REPRESENTATION_CONTEXT(2) 
PARAMETRIC_REPRESENTATION_CONTEXT() REPRESENTATION_CONTEXT('2D SPACE',''
  ) );
#716 = PCURVE('',#717,#722);
#717 = PLANE('',#718);
#718 = AXIS2_PLACEMENT_3D('',#719,#720,#721);
#719 = CARTESIAN_POINT('',(2.586199963232E+04,4.04466230179E+03,
    6.763897433971E+03));
#720 = DIRECTION('',(-2.86490733158E-15,1.,-5.3403341076E-27));
#721 = DIRECTION('',(1.,2.86490733158E-15,0.));
#722 = DEFINITIONAL_REPRESENTATION('',(#723),#727);
#723 = CIRCLE('',#724,6.847199684369);
#724 = AXIS2_PLACEMENT_2D('',#725,#726);
#725 = CARTESIAN_POINT('',(0.,0.));
#726 = DIRECTION('',(1.,0.));
#727 = ( GEOMETRIC_REPRESENTATION_CONTEXT(2) 
PARAMETRIC_REPRESENTATION_CONTEXT() REPRESENTATION_CONTEXT('2D SPACE',''
  ) );
#728 = ORIENTED_EDGE('',*,*,#679,.T.);
#729 = ADVANCED_FACE('',(#730),#667,.T.);
#730 = FACE_BOUND('',#731,.T.);
#731 = EDGE_LOOP('',(#732));
#732 = ORIENTED_EDGE('',*,*,#645,.T.);
#733 = ADVANCED_FACE('',(#734),#717,.F.);
#734 = FACE_BOUND('',#735,.T.);
#735 = EDGE_LOOP('',(#736));
#736 = ORIENTED_EDGE('',*,*,#702,.F.);
#737 = ( GEOMETRIC_REPRESENTATION_CONTEXT(3) 
GLOBAL_UNCERTAINTY_ASSIGNED_CONTEXT((#741)) GLOBAL_UNIT_ASSIGNED_CONTEXT
((#738,#739,#740)) REPRESENTATION_CONTEXT('Context #1',
  '3D Context with UNIT and UNCERTAINTY') );
#738 = ( LENGTH_UNIT() NAMED_UNIT(*) SI_UNIT(.MILLI.,.METRE.) );
#739 = ( NAMED_UNIT(*) PLANE_ANGLE_UNIT() SI_UNIT($,.RADIAN.) );
#740 = ( NAMED_UNIT(*) SI_UNIT($,.STERADIAN.) SOLID_ANGLE_UNIT() );
#741 = UNCERTAINTY_MEASURE_WITH_UNIT(LENGTH_MEASURE(1.E-07),#738,
  'distance_accuracy_value','confusion accuracy');
#742 = SHAPE_DEFINITION_REPRESENTATION(#743,#638);
#743 = PRODUCT_DEFINITION_SHAPE('','',#744);
#744 = PRODUCT_DEFINITION('design','',#745,#748);
#745 = PRODUCT_DEFINITION_FORMATION('','',#746);
#746 = PRODUCT('Open CASCADE STEP translator 7.5 4.6',
  'Open CASCADE STEP translator 7.5 4.6','',(#747));
#747 = PRODUCT_CONTEXT('',#2,'mechanical');
#748 = PRODUCT_DEFINITION_CONTEXT('part definition',#2,'design');
#749 = CONTEXT_DEPENDENT_SHAPE_REPRESENTATION(#750,#752);
#750 = ( REPRESENTATION_RELATIONSHIP('','',#638,#10) 
REPRESENTATION_RELATIONSHIP_WITH_TRANSFORMATION(#751) 
SHAPE_REPRESENTATION_RELATIONSHIP() );
#751 = ITEM_DEFINED_TRANSFORMATION('','',#11,#35);
#752 = PRODUCT_DEFINITION_SHAPE('Placement','Placement of an item',#753
  );
#753 = NEXT_ASSEMBLY_USAGE_OCCURRENCE('293','','',#5,#744,$);
#754 = PRODUCT_RELATED_PRODUCT_CATEGORY('part',$,(#746));
#755 = ADVANCED_BREP_SHAPE_REPRESENTATION('',(#11,#756),#854);
#756 = MANIFOLD_SOLID_BREP('',#757);
#757 = CLOSED_SHELL('',(#758,#846,#850));
#758 = ADVANCED_FACE('',(#759),#772,.T.);
#759 = FACE_BOUND('',#760,.T.);
#760 = EDGE_LOOP('',(#761,#795,#818,#845));
#761 = ORIENTED_EDGE('',*,*,#762,.F.);
#762 = EDGE_CURVE('',#763,#763,#765,.T.);
#763 = VERTEX_POINT('',#764);
#764 = CARTESIAN_POINT('',(2.615067397711E+04,4.051509501475E+03,
    6.763897433971E+03));
#765 = SURFACE_CURVE('',#766,(#771,#783),.PCURVE_S1.);
#766 = CIRCLE('',#767,6.847199684369);
#767 = AXIS2_PLACEMENT_3D('',#768,#769,#770);
#768 = CARTESIAN_POINT('',(2.614382677743E+04,4.051509501475E+03,
    6.763897433971E+03));
#769 = DIRECTION('',(-2.86490733158E-15,1.,-5.3403341076E-27));
#770 = DIRECTION('',(1.,2.86490733158E-15,0.));
#771 = PCURVE('',#772,#777);
#772 = CYLINDRICAL_SURFACE('',#773,6.847199684369);
#773 = AXIS2_PLACEMENT_3D('',#774,#775,#776);
#774 = CARTESIAN_POINT('',(2.614382677743E+04,4.04466230179E+03,
    6.763897433971E+03));
#775 = DIRECTION('',(-2.86490733158E-15,1.,-5.3403341076E-27));
#776 = DIRECTION('',(1.,2.86490733158E-15,0.));
#777 = DEFINITIONAL_REPRESENTATION('',(#778),#782);
#778 = LINE('',#779,#780);
#779 = CARTESIAN_POINT('',(0.,6.847199684369));
#780 = VECTOR('',#781,1.);
#781 = DIRECTION('',(1.,0.));
#782 = ( GEOMETRIC_REPRESENTATION_CONTEXT(2) 
PARAMETRIC_REPRESENTATION_CONTEXT() REPRESENTATION_CONTEXT('2D SPACE',''
  ) );
#783 = PCURVE('',#784,#789);
#784 = PLANE('',#785);
#785 = AXIS2_PLACEMENT_3D('',#786,#787,#788);
#786 = CARTESIAN_POINT('',(2.614382677743E+04,4.051509501475E+03,
    6.763897433971E+03));
#787 = DIRECTION('',(-2.86490733158E-15,1.,-5.3403341076E-27));
#788 = DIRECTION('',(1.,2.86490733158E-15,0.));
#789 = DEFINITIONAL_REPRESENTATION('',(#790),#794);
#790 = CIRCLE('',#791,6.847199684369);
#791 = AXIS2_PLACEMENT_2D('',#792,#793);
#792 = CARTESIAN_POINT('',(0.,0.));
#793 = DIRECTION('',(1.,0.));
#794 = ( GEOMETRIC_REPRESENTATION_CONTEXT(2) 
PARAMETRIC_REPRESENTATION_CONTEXT() REPRESENTATION_CONTEXT('2D SPACE',''
  ) );
#795 = ORIENTED_EDGE('',*,*,#796,.F.);
#796 = EDGE_CURVE('',#797,#763,#799,.T.);
#797 = VERTEX_POINT('',#798);
#798 = CARTESIAN_POINT('',(2.615067397711E+04,4.04466230179E+03,
    6.763897433971E+03));
#799 = SEAM_CURVE('',#800,(#804,#811),.PCURVE_S1.);
#800 = LINE('',#801,#802);
#801 = CARTESIAN_POINT('',(2.615067397711E+04,4.04466230179E+03,
    6.763897433971E+03));
#802 = VECTOR('',#803,1.);
#803 = DIRECTION('',(-2.86490733158E-15,1.,-5.3403341076E-27));
#804 = PCURVE('',#772,#805);
#805 = DEFINITIONAL_REPRESENTATION('',(#806),#810);
#806 = LINE('',#807,#808);
#807 = CARTESIAN_POINT('',(6.28318530718,-0.));
#808 = VECTOR('',#809,1.);
#809 = DIRECTION('',(0.,1.));
#810 = ( GEOMETRIC_REPRESENTATION_CONTEXT(2) 
PARAMETRIC_REPRESENTATION_CONTEXT() REPRESENTATION_CONTEXT('2D SPACE',''
  ) );
#811 = PCURVE('',#772,#812);
#812 = DEFINITIONAL_REPRESENTATION('',(#813),#817);
#813 = LINE('',#814,#815);
#814 = CARTESIAN_POINT('',(0.,-0.));
#815 = VECTOR('',#816,1.);
#816 = DIRECTION('',(0.,1.));
#817 = ( GEOMETRIC_REPRESENTATION_CONTEXT(2) 
PARAMETRIC_REPRESENTATION_CONTEXT() REPRESENTATION_CONTEXT('2D SPACE',''
  ) );
#818 = ORIENTED_EDGE('',*,*,#819,.T.);
#819 = EDGE_CURVE('',#797,#797,#820,.T.);
#820 = SURFACE_CURVE('',#821,(#826,#833),.PCURVE_S1.);
#821 = CIRCLE('',#822,6.847199684369);
#822 = AXIS2_PLACEMENT_3D('',#823,#824,#825);
#823 = CARTESIAN_POINT('',(2.614382677743E+04,4.04466230179E+03,
    6.763897433971E+03));
#824 = DIRECTION('',(-2.86490733158E-15,1.,-5.3403341076E-27));
#825 = DIRECTION('',(1.,2.86490733158E-15,0.));
#826 = PCURVE('',#772,#827);
#827 = DEFINITIONAL_REPRESENTATION('',(#828),#832);
#828 = LINE('',#829,#830);
#829 = CARTESIAN_POINT('',(0.,0.));
#830 = VECTOR('',#831,1.);
#831 = DIRECTION('',(1.,0.));
#832 = ( GEOMETRIC_REPRESENTATION_CONTEXT(2) 
PARAMETRIC_REPRESENTATION_CONTEXT() REPRESENTATION_CONTEXT('2D SPACE',''
  ) );
#833 = PCURVE('',#834,#839);
#834 = PLANE('',#835);
#835 = AXIS2_PLACEMENT_3D('',#836,#837,#838);
#836 = CARTESIAN_POINT('',(2.614382677743E+04,4.04466230179E+03,
    6.763897433971E+03));
#837 = DIRECTION('',(-2.86490733158E-15,1.,-5.3403341076E-27));
#838 = DIRECTION('',(1.,2.86490733158E-15,0.));
#839 = DEFINITIONAL_REPRESENTATION('',(#840),#844);
#840 = CIRCLE('',#841,6.847199684369);
#841 = AXIS2_PLACEMENT_2D('',#842,#843);
#842 = CARTESIAN_POINT('',(0.,0.));
#843 = DIRECTION('',(1.,0.));
#844 = ( GEOMETRIC_REPRESENTATION_CONTEXT(2) 
PARAMETRIC_REPRESENTATION_CONTEXT() REPRESENTATION_CONTEXT('2D SPACE',''
  ) );
#845 = ORIENTED_EDGE('',*,*,#796,.T.);
#846 = ADVANCED_FACE('',(#847),#784,.T.);
#847 = FACE_BOUND('',#848,.T.);
#848 = EDGE_LOOP('',(#849));
#849 = ORIENTED_EDGE('',*,*,#762,.T.);
#850 = ADVANCED_FACE('',(#851),#834,.F.);
#851 = FACE_BOUND('',#852,.T.);
#852 = EDGE_LOOP('',(#853));
#853 = ORIENTED_EDGE('',*,*,#819,.F.);
#854 = ( GEOMETRIC_REPRESENTATION_CONTEXT(3) 
GLOBAL_UNCERTAINTY_ASSIGNED_CONTEXT((#858)) GLOBAL_UNIT_ASSIGNED_CONTEXT
((#855,#856,#857)) REPRESENTATION_CONTEXT('Context #1',
  '3D Context with UNIT and UNCERTAINTY') );
#855 = ( LENGTH_UNIT() NAMED_UNIT(*) SI_UNIT(.MILLI.,.METRE.) );
#856 = ( NAMED_UNIT(*) PLANE_ANGLE_UNIT() SI_UNIT($,.RADIAN.) );
#857 = ( NAMED_UNIT(*) SI_UNIT($,.STERADIAN.) SOLID_ANGLE_UNIT() );
#858 = UNCERTAINTY_MEASURE_WITH_UNIT(LENGTH_MEASURE(1.E-07),#855,
  'distance_accuracy_value','confusion accuracy');
#859 = SHAPE_DEFINITION_REPRESENTATION(#860,#755);
#860 = PRODUCT_DEFINITION_SHAPE('','',#861);
#861 = PRODUCT_DEFINITION('design','',#862,#865);
#862 = PRODUCT_DEFINITION_FORMATION('','',#863);
#863 = PRODUCT('Open CASCADE STEP translator 7.5 4.7',
  'Open CASCADE STEP translator 7.5 4.7','',(#864));
#864 = PRODUCT_CONTEXT('',#2,'mechanical');
#865 = PRODUCT_DEFINITION_CONTEXT('part definition',#2,'design');
#866 = CONTEXT_DEPENDENT_SHAPE_REPRESENTATION(#867,#869);
#867 = ( REPRESENTATION_RELATIONSHIP('','',#755,#10) 
REPRESENTATION_RELATIONSHIP_WITH_TRANSFORMATION(#868) 
SHAPE_REPRESENTATION_RELATIONSHIP() );
#868 = ITEM_DEFINED_TRANSFORMATION('','',#11,#39);
#869 = PRODUCT_DEFINITION_SHAPE('Placement','Placement of an item',#870
  );
#870 = NEXT_ASSEMBLY_USAGE_OCCURRENCE('294','','',#5,#861,$);
#871 = PRODUCT_RELATED_PRODUCT_CATEGORY('part',$,(#863));
#872 = ADVANCED_BREP_SHAPE_REPRESENTATION('',(#11,#873),#971);
#873 = MANIFOLD_SOLID_BREP('',#874);
#874 = CLOSED_SHELL('',(#875,#963,#967));
#875 = ADVANCED_FACE('',(#876),#889,.T.);
#876 = FACE_BOUND('',#877,.T.);
#877 = EDGE_LOOP('',(#878,#912,#935,#962));
#878 = ORIENTED_EDGE('',*,*,#879,.F.);
#879 = EDGE_CURVE('',#880,#880,#882,.T.);
#880 = VERTEX_POINT('',#881);
#881 = CARTESIAN_POINT('',(2.643250112221E+04,4.051509501475E+03,
    6.763897433971E+03));
#882 = SURFACE_CURVE('',#883,(#888,#900),.PCURVE_S1.);
#883 = CIRCLE('',#884,6.847199684369);
#884 = AXIS2_PLACEMENT_3D('',#885,#886,#887);
#885 = CARTESIAN_POINT('',(2.642565392253E+04,4.051509501475E+03,
    6.763897433971E+03));
#886 = DIRECTION('',(-2.86490733158E-15,1.,-5.3403341076E-27));
#887 = DIRECTION('',(1.,2.86490733158E-15,0.));
#888 = PCURVE('',#889,#894);
#889 = CYLINDRICAL_SURFACE('',#890,6.847199684369);
#890 = AXIS2_PLACEMENT_3D('',#891,#892,#893);
#891 = CARTESIAN_POINT('',(2.642565392253E+04,4.04466230179E+03,
    6.763897433971E+03));
#892 = DIRECTION('',(-2.86490733158E-15,1.,-5.3403341076E-27));
#893 = DIRECTION('',(1.,2.86490733158E-15,0.));
#894 = DEFINITIONAL_REPRESENTATION('',(#895),#899);
#895 = LINE('',#896,#897);
#896 = CARTESIAN_POINT('',(0.,6.847199684369));
#897 = VECTOR('',#898,1.);
#898 = DIRECTION('',(1.,0.));
#899 = ( GEOMETRIC_REPRESENTATION_CONTEXT(2) 
PARAMETRIC_REPRESENTATION_CONTEXT() REPRESENTATION_CONTEXT('2D SPACE',''
  ) );
#900 = PCURVE('',#901,#906);
#901 = PLANE('',#902);
#902 = AXIS2_PLACEMENT_3D('',#903,#904,#905);
#903 = CARTESIAN_POINT('',(2.642565392253E+04,4.051509501475E+03,
    6.763897433971E+03));
#904 = DIRECTION('',(-2.86490733158E-15,1.,-5.3403341076E-27));
#905 = DIRECTION('',(1.,2.86490733158E-15,0.));
#906 = DEFINITIONAL_REPRESENTATION('',(#907),#911);
#907 = CIRCLE('',#908,6.847199684369);
#908 = AXIS2_PLACEMENT_2D('',#909,#910);
#909 = CARTESIAN_POINT('',(0.,0.));
#910 = DIRECTION('',(1.,0.));
#911 = ( GEOMETRIC_REPRESENTATION_CONTEXT(2) 
PARAMETRIC_REPRESENTATION_CONTEXT() REPRESENTATION_CONTEXT('2D SPACE',''
  ) );
#912 = ORIENTED_EDGE('',*,*,#913,.F.);
#913 = EDGE_CURVE('',#914,#880,#916,.T.);
#914 = VERTEX_POINT('',#915);
#915 = CARTESIAN_POINT('',(2.643250112221E+04,4.04466230179E+03,
    6.763897433971E+03));
#916 = SEAM_CURVE('',#917,(#921,#928),.PCURVE_S1.);
#917 = LINE('',#918,#919);
#918 = CARTESIAN_POINT('',(2.643250112221E+04,4.04466230179E+03,
    6.763897433971E+03));
#919 = VECTOR('',#920,1.);
#920 = DIRECTION('',(-2.86490733158E-15,1.,-5.3403341076E-27));
#921 = PCURVE('',#889,#922);
#922 = DEFINITIONAL_REPRESENTATION('',(#923),#927);
#923 = LINE('',#924,#925);
#924 = CARTESIAN_POINT('',(6.28318530718,-0.));
#925 = VECTOR('',#926,1.);
#926 = DIRECTION('',(0.,1.));
#927 = ( GEOMETRIC_REPRESENTATION_CONTEXT(2) 
PARAMETRIC_REPRESENTATION_CONTEXT() REPRESENTATION_CONTEXT('2D SPACE',''
  ) );
#928 = PCURVE('',#889,#929);
#929 = DEFINITIONAL_REPRESENTATION('',(#930),#934);
#930 = LINE('',#931,#932);
#931 = CARTESIAN_POINT('',(0.,-0.));
#932 = VECTOR('',#933,1.);
#933 = DIRECTION('',(0.,1.));
#934 = ( GEOMETRIC_REPRESENTATION_CONTEXT(2) 
PARAMETRIC_REPRESENTATION_CONTEXT() REPRESENTATION_CONTEXT('2D SPACE',''
  ) );
#935 = ORIENTED_EDGE('',*,*,#936,.T.);
#936 = EDGE_CURVE('',#914,#914,#937,.T.);
#937 = SURFACE_CURVE('',#938,(#943,#950),.PCURVE_S1.);
#938 = CIRCLE('',#939,6.847199684369);
#939 = AXIS2_PLACEMENT_3D('',#940,#941,#942);
#940 = CARTESIAN_POINT('',(2.642565392253E+04,4.04466230179E+03,
    6.763897433971E+03));
#941 = DIRECTION('',(-2.86490733158E-15,1.,-5.3403341076E-27));
#942 = DIRECTION('',(1.,2.86490733158E-15,0.));
#943 = PCURVE('',#889,#944);
#944 = DEFINITIONAL_REPRESENTATION('',(#945),#949);
#945 = LINE('',#946,#947);
#946 = CARTESIAN_POINT('',(0.,0.));
#947 = VECTOR('',#948,1.);
#948 = DIRECTION('',(1.,0.));
#949 = ( GEOMETRIC_REPRESENTATION_CONTEXT(2) 
PARAMETRIC_REPRESENTATION_CONTEXT() REPRESENTATION_CONTEXT('2D SPACE',''
  ) );
#950 = PCURVE('',#951,#956);
#951 = PLANE('',#952);
#952 = AXIS2_PLACEMENT_3D('',#953,#954,#955);
#953 = CARTESIAN_POINT('',(2.642565392253E+04,4.04466230179E+03,
    6.763897433971E+03));
#954 = DIRECTION('',(-2.86490733158E-15,1.,-5.3403341076E-27));
#955 = DIRECTION('',(1.,2.86490733158E-15,0.));
#956 = DEFINITIONAL_REPRESENTATION('',(#957),#961);
#957 = CIRCLE('',#958,6.847199684369);
#958 = AXIS2_PLACEMENT_2D('',#959,#960);
#959 = CARTESIAN_POINT('',(0.,0.));
#960 = DIRECTION('',(1.,0.));
#961 = ( GEOMETRIC_REPRESENTATION_CONTEXT(2) 
PARAMETRIC_REPRESENTATION_CONTEXT() REPRESENTATION_CONTEXT('2D SPACE',''
  ) );
#962 = ORIENTED_EDGE('',*,*,#913,.T.);
#963 = ADVANCED_FACE('',(#964),#901,.T.);
#964 = FACE_BOUND('',#965,.T.);
#965 = EDGE_LOOP('',(#966));
#966 = ORIENTED_EDGE('',*,*,#879,.T.);
#967 = ADVANCED_FACE('',(#968),#951,.F.);
#968 = FACE_BOUND('',#969,.T.);
#969 = EDGE_LOOP('',(#970));
#970 = ORIENTED_EDGE('',*,*,#936,.F.);
#971 = ( GEOMETRIC_REPRESENTATION_CONTEXT(3) 
GLOBAL_UNCERTAINTY_ASSIGNED_CONTEXT((#975)) GLOBAL_UNIT_ASSIGNED_CONTEXT
((#972,#973,#974)) REPRESENTATION_CONTEXT('Context #1',
  '3D Context with UNIT and UNCERTAINTY') );
#972 = ( LENGTH_UNIT() NAMED_UNIT(*) SI_UNIT(.MILLI.,.METRE.) );
#973 = ( NAMED_UNIT(*) PLANE_ANGLE_UNIT() SI_UNIT($,.RADIAN.) );
#974 = ( NAMED_UNIT(*) SI_UNIT($,.STERADIAN.) SOLID_ANGLE_UNIT() );
#975 = UNCERTAINTY_MEASURE_WITH_UNIT(LENGTH_MEASURE(1.E-07),#972,
  'distance_accuracy_value','confusion accuracy');
#976 = SHAPE_DEFINITION_REPRESENTATION(#977,#872);
#977 = PRODUCT_DEFINITION_SHAPE('','',#978);
#978 = PRODUCT_DEFINITION('design','',#979,#982);
#979 = PRODUCT_DEFINITION_FORMATION('','',#980);
#980 = PRODUCT('Open CASCADE STEP translator 7.5 4.8',
  'Open CASCADE STEP translator 7.5 4.8','',(#981));
#981 = PRODUCT_CONTEXT('',#2,'mechanical');
#982 = PRODUCT_DEFINITION_CONTEXT('part definition',#2,'design');
#983 = CONTEXT_DEPENDENT_SHAPE_REPRESENTATION(#984,#986);
#984 = ( REPRESENTATION_RELATIONSHIP('','',#872,#10) 
REPRESENTATION_RELATIONSHIP_WITH_TRANSFORMATION(#985) 
SHAPE_REPRESENTATION_RELATIONSHIP() );
#985 = ITEM_DEFINED_TRANSFORMATION('','',#11,#43);
#986 = PRODUCT_DEFINITION_SHAPE('Placement','Placement of an item',#987
  );
#987 = NEXT_ASSEMBLY_USAGE_OCCURRENCE('295','','',#5,#978,$);
#988 = PRODUCT_RELATED_PRODUCT_CATEGORY('part',$,(#980));
ENDSEC;
END-ISO-10303-21;
